<svg width="700" height="500" xmlns="http://www.w3.org/2000/svg"><g><path d="M-53,-58L-75,71L58,28Z" fill="#525977" stroke="#525977" fill-opacity="1" stroke-opacity="1"/><path d="M-53,-58L58,28L68,-67Z" fill="#53526e" stroke="#53526e" fill-opacity="1" stroke-opacity="1"/><path d="M68,-67L58,28L121,25Z" fill="#525673" stroke="#525673" fill-opacity="1" stroke-opacity="1"/><path d="M68,-67L121,25L152,-63Z" fill="#53526d" stroke="#53526d" fill-opacity="1" stroke-opacity="1"/><path d="M68,-67L152,-63L531,-52Z" fill="#54506b" stroke="#54506b" fill-opacity="1" stroke-opacity="1"/><path d="M68,-67L531,-52L746,-47Z" fill="#4d7498" stroke="#4d7498" fill-opacity="1" stroke-opacity="1"/><path d="M152,-63L121,25L226,-28Z" fill="#535470" stroke="#535470" fill-opacity="1" stroke-opacity="1"/><path d="M152,-63L226,-28L331,-55Z" fill="#54506b" stroke="#54506b" fill-opacity="1" stroke-opacity="1"/><path d="M152,-63L331,-55L531,-52Z" fill="#506080" stroke="#506080" fill-opacity="1" stroke-opacity="1"/><path d="M226,-28L121,25L252,32Z" fill="#525976" stroke="#525976" fill-opacity="1" stroke-opacity="1"/><path d="M226,-28L252,32L331,-55Z" fill="#525b79" stroke="#525b79" fill-opacity="1" stroke-opacity="1"/><path d="M331,-55L252,32L338,21Z" fill="#506484" stroke="#506484" fill-opacity="1" stroke-opacity="1"/><path d="M331,-55L338,21L463,-24Z" fill="#4e6d90" stroke="#4e6d90" fill-opacity="1" stroke-opacity="1"/><path d="M331,-55L463,-24L531,-52Z" fill="#4d7499" stroke="#4d7499" fill-opacity="1" stroke-opacity="1"/><path d="M463,-24L338,21L447,77Z" fill="#4c7ba1" stroke="#4c7ba1" fill-opacity="1" stroke-opacity="1"/><path d="M463,-24L447,77L523,45Z" fill="#4987b0" stroke="#4987b0" fill-opacity="1" stroke-opacity="1"/><path d="M463,-24L523,45L531,-52Z" fill="#4a85ae" stroke="#4a85ae" fill-opacity="1" stroke-opacity="1"/><path d="M531,-52L523,45L655,-26Z" fill="#4890b8" stroke="#4890b8" fill-opacity="1" stroke-opacity="1"/><path d="M531,-52L655,-26L746,-47Z" fill="#4798b1" stroke="#4798b1" fill-opacity="1" stroke-opacity="1"/><path d="M655,-26L523,45L652,78Z" fill="#459ec0" stroke="#459ec0" fill-opacity="1" stroke-opacity="1"/><path d="M655,-26L652,78L751,52Z" fill="#43abc1" stroke="#43abc1" fill-opacity="1" stroke-opacity="1"/><path d="M655,-26L751,52L746,-47Z" fill="#43aab8" stroke="#43aab8" fill-opacity="1" stroke-opacity="1"/><path d="M746,-47L751,52L768,137Z" fill="#40b3c3" stroke="#40b3c3" fill-opacity="1" stroke-opacity="1"/><path d="M-75,71L-80,153L34,123Z" fill="#4f6a8c" stroke="#4f6a8c" fill-opacity="1" stroke-opacity="1"/><path d="M-75,71L34,123L58,28Z" fill="#506383" stroke="#506383" fill-opacity="1" stroke-opacity="1"/><path d="M58,28L34,123L121,25Z" fill="#506180" stroke="#506180" fill-opacity="1" stroke-opacity="1"/><path d="M121,25L34,123L138,170Z" fill="#4f688a" stroke="#4f688a" fill-opacity="1" stroke-opacity="1"/><path d="M121,25L138,170L252,32Z" fill="#506484" stroke="#506484" fill-opacity="1" stroke-opacity="1"/><path d="M252,32L138,170L244,169Z" fill="#4f6b8d" stroke="#4f6b8d" fill-opacity="1" stroke-opacity="1"/><path d="M252,32L244,169L336,146Z" fill="#4d7195" stroke="#4d7195" fill-opacity="1" stroke-opacity="1"/><path d="M252,32L336,146L338,21Z" fill="#4e6f92" stroke="#4e6f92" fill-opacity="1" stroke-opacity="1"/><path d="M338,21L336,146L447,77Z" fill="#4b7da3" stroke="#4b7da3" fill-opacity="1" stroke-opacity="1"/><path d="M447,77L336,146L433,165Z" fill="#498ab4" stroke="#498ab4" fill-opacity="1" stroke-opacity="1"/><path d="M447,77L433,165L564,178Z" fill="#4699c7" stroke="#4699c7" fill-opacity="1" stroke-opacity="1"/><path d="M447,77L564,178L523,45Z" fill="#4698c6" stroke="#4698c6" fill-opacity="1" stroke-opacity="1"/><path d="M523,45L564,178L652,78Z" fill="#44a4ce" stroke="#44a4ce" fill-opacity="1" stroke-opacity="1"/><path d="M652,78L564,178L670,180Z" fill="#41b3d7" stroke="#41b3d7" fill-opacity="1" stroke-opacity="1"/><path d="M652,78L670,180L768,137Z" fill="#3fbdd5" stroke="#3fbdd5" fill-opacity="1" stroke-opacity="1"/><path d="M652,78L768,137L751,52Z" fill="#40bacc" stroke="#40bacc" fill-opacity="1" stroke-opacity="1"/><path d="M-80,153L-59,547L-66,339Z" fill="#488fba" stroke="#488fba" fill-opacity="1" stroke-opacity="1"/><path d="M-80,153L-66,339L-40,256Z" fill="#4b80a7" stroke="#4b80a7" fill-opacity="1" stroke-opacity="1"/><path d="M-80,153L-40,256L34,123Z" fill="#4d7498" stroke="#4d7498" fill-opacity="1" stroke-opacity="1"/><path d="M34,123L-40,256L75,230Z" fill="#4c789e" stroke="#4c789e" fill-opacity="1" stroke-opacity="1"/><path d="M34,123L75,230L138,170Z" fill="#4d7398" stroke="#4d7398" fill-opacity="1" stroke-opacity="1"/><path d="M138,170L75,230L175,260Z" fill="#4c7ba1" stroke="#4c7ba1" fill-opacity="1" stroke-opacity="1"/><path d="M138,170L175,260L229,246Z" fill="#4b7ca2" stroke="#4b7ca2" fill-opacity="1" stroke-opacity="1"/><path d="M138,170L229,246L244,169Z" fill="#4c779c" stroke="#4c779c" fill-opacity="1" stroke-opacity="1"/><path d="M244,169L229,246L367,241Z" fill="#4a83ab" stroke="#4a83ab" fill-opacity="1" stroke-opacity="1"/><path d="M244,169L367,241L336,146Z" fill="#4a84ac" stroke="#4a84ac" fill-opacity="1" stroke-opacity="1"/><path d="M336,146L367,241L433,165Z" fill="#488eba" stroke="#488eba" fill-opacity="1" stroke-opacity="1"/><path d="M433,165L367,241L471,274Z" fill="#459dcc" stroke="#459dcc" fill-opacity="1" stroke-opacity="1"/><path d="M433,165L471,274L564,178Z" fill="#44a5d6" stroke="#44a5d6" fill-opacity="1" stroke-opacity="1"/><path d="M564,178L471,274L569,252Z" fill="#42b2e6" stroke="#42b2e6" fill-opacity="1" stroke-opacity="1"/><path d="M564,178L569,252L646,235Z" fill="#40bae7" stroke="#40bae7" fill-opacity="1" stroke-opacity="1"/><path d="M564,178L646,235L670,180Z" fill="#40bce2" stroke="#40bce2" fill-opacity="1" stroke-opacity="1"/><path d="M670,180L646,235L742,256Z" fill="#3dcae7" stroke="#3dcae7" fill-opacity="1" stroke-opacity="1"/><path d="M670,180L742,256L768,137Z" fill="#3dcae1" stroke="#3dcae1" fill-opacity="1" stroke-opacity="1"/><path d="M768,137L742,256L760,433Z" fill="#39d8f2" stroke="#39d8f2" fill-opacity="1" stroke-opacity="1"/><path d="M768,137L760,433L766,529Z" fill="#36e7ff" stroke="#36e7ff" fill-opacity="1" stroke-opacity="1"/><path d="M-40,256L-66,339L45,358Z" fill="#498bb5" stroke="#498bb5" fill-opacity="1" stroke-opacity="1"/><path d="M-40,256L45,358L75,230Z" fill="#4a85ae" stroke="#4a85ae" fill-opacity="1" stroke-opacity="1"/><path d="M75,230L45,358L171,341Z" fill="#4989b3" stroke="#4989b3" fill-opacity="1" stroke-opacity="1"/><path d="M75,230L171,341L175,260Z" fill="#4a84ad" stroke="#4a84ad" fill-opacity="1" stroke-opacity="1"/><path d="M175,260L171,341L222,360Z" fill="#498bb6" stroke="#498bb6" fill-opacity="1" stroke-opacity="1"/><path d="M175,260L222,360L229,246Z" fill="#4a86af" stroke="#4a86af" fill-opacity="1" stroke-opacity="1"/><path d="M229,246L222,360L338,360Z" fill="#4890bc" stroke="#4890bc" fill-opacity="1" stroke-opacity="1"/><path d="M229,246L338,360L367,241Z" fill="#4792bf" stroke="#4792bf" fill-opacity="1" stroke-opacity="1"/><path d="M367,241L338,360L456,362Z" fill="#44a6d7" stroke="#44a6d7" fill-opacity="1" stroke-opacity="1"/><path d="M367,241L456,362L471,274Z" fill="#43a9db" stroke="#43a9db" fill-opacity="1" stroke-opacity="1"/><path d="M471,274L456,362L543,361Z" fill="#40baf0" stroke="#40baf0" fill-opacity="1" stroke-opacity="1"/><path d="M471,274L543,361L569,252Z" fill="#40baf1" stroke="#40baf1" fill-opacity="1" stroke-opacity="1"/><path d="M569,252L543,361L664,321Z" fill="#3dc8f9" stroke="#3dc8f9" fill-opacity="1" stroke-opacity="1"/><path d="M569,252L664,321L646,235Z" fill="#3ec7f1" stroke="#3ec7f1" fill-opacity="1" stroke-opacity="1"/><path d="M646,235L664,321L742,256Z" fill="#3cd1f1" stroke="#3cd1f1" fill-opacity="1" stroke-opacity="1"/><path d="M742,256L664,321L720,350Z" fill="#39dcf9" stroke="#39dcf9" fill-opacity="1" stroke-opacity="1"/><path d="M742,256L720,350L760,433Z" fill="#37e3ff" stroke="#37e3ff" fill-opacity="1" stroke-opacity="1"/><path d="M-66,339L-59,547L-59,443Z" fill="#459fba" stroke="#459fba" fill-opacity="1" stroke-opacity="1"/><path d="M-66,339L-59,443L45,358Z" fill="#4795ba" stroke="#4795ba" fill-opacity="1" stroke-opacity="1"/><path d="M45,358L-59,443L76,459Z" fill="#469bba" stroke="#469bba" fill-opacity="1" stroke-opacity="1"/><path d="M45,358L76,459L148,453Z" fill="#469cba" stroke="#469cba" fill-opacity="1" stroke-opacity="1"/><path d="M45,358L148,453L171,341Z" fill="#4795ba" stroke="#4795ba" fill-opacity="1" stroke-opacity="1"/><path d="M171,341L148,453L222,360Z" fill="#4796ba" stroke="#4796ba" fill-opacity="1" stroke-opacity="1"/><path d="M222,360L148,453L248,455Z" fill="#469cba" stroke="#469cba" fill-opacity="1" stroke-opacity="1"/><path d="M222,360L248,455L338,360Z" fill="#469dc2" stroke="#469dc2" fill-opacity="1" stroke-opacity="1"/><path d="M338,360L248,455L357,466Z" fill="#43aacb" stroke="#43aacb" fill-opacity="1" stroke-opacity="1"/><path d="M338,360L357,466L456,362Z" fill="#41b1db" stroke="#41b1db" fill-opacity="1" stroke-opacity="1"/><path d="M456,362L357,466L465,442Z" fill="#40bde4" stroke="#40bde4" fill-opacity="1" stroke-opacity="1"/><path d="M456,362L465,442L543,361Z" fill="#3fc2f1" stroke="#3fc2f1" fill-opacity="1" stroke-opacity="1"/><path d="M543,361L465,442L520,453Z" fill="#3dcbf6" stroke="#3dcbf6" fill-opacity="1" stroke-opacity="1"/><path d="M543,361L520,453L643,473Z" fill="#3ad7ff" stroke="#3ad7ff" fill-opacity="1" stroke-opacity="1"/><path d="M543,361L643,473L664,321Z" fill="#3ad8ff" stroke="#3ad8ff" fill-opacity="1" stroke-opacity="1"/><path d="M664,321L643,473L720,350Z" fill="#39e2ff" stroke="#39e2ff" fill-opacity="1" stroke-opacity="1"/><path d="M720,350L643,473L760,433Z" fill="#37eeff" stroke="#37eeff" fill-opacity="1" stroke-opacity="1"/><path d="M-59,443L-59,547L48,524Z" fill="#43a9ba" stroke="#43a9ba" fill-opacity="1" stroke-opacity="1"/><path d="M-59,443L48,524L76,459Z" fill="#44a4ba" stroke="#44a4ba" fill-opacity="1" stroke-opacity="1"/><path d="M76,459L48,524L167,543Z" fill="#43aaba" stroke="#43aaba" fill-opacity="1" stroke-opacity="1"/><path d="M76,459L167,543L148,453Z" fill="#44a6ba" stroke="#44a6ba" fill-opacity="1" stroke-opacity="1"/><path d="M148,453L167,543L248,455Z" fill="#44a6ba" stroke="#44a6ba" fill-opacity="1" stroke-opacity="1"/><path d="M248,455L167,543L263,574Z" fill="#43abba" stroke="#43abba" fill-opacity="1" stroke-opacity="1"/><path d="M248,455L263,574L348,540Z" fill="#41b4c5" stroke="#41b4c5" fill-opacity="1" stroke-opacity="1"/><path d="M248,455L348,540L357,466Z" fill="#41b5cc" stroke="#41b5cc" fill-opacity="1" stroke-opacity="1"/><path d="M357,466L348,540L440,571Z" fill="#3dc5da" stroke="#3dc5da" fill-opacity="1" stroke-opacity="1"/><path d="M357,466L440,571L465,442Z" fill="#3dc8e3" stroke="#3dc8e3" fill-opacity="1" stroke-opacity="1"/><path d="M465,442L440,571L520,453Z" fill="#3cd0ef" stroke="#3cd0ef" fill-opacity="1" stroke-opacity="1"/><path d="M520,453L440,571L539,564Z" fill="#3ad9f4" stroke="#3ad9f4" fill-opacity="1" stroke-opacity="1"/><path d="M520,453L539,564L643,473Z" fill="#39e2ff" stroke="#39e2ff" fill-opacity="1" stroke-opacity="1"/><path d="M643,473L539,564L676,529Z" fill="#36eeff" stroke="#36eeff" fill-opacity="1" stroke-opacity="1"/><path d="M643,473L676,529L760,433Z" fill="#35f5ff" stroke="#35f5ff" fill-opacity="1" stroke-opacity="1"/><path d="M760,433L676,529L766,529Z" fill="#33fcff" stroke="#33fcff" fill-opacity="1" stroke-opacity="1"/><path d="M-59,547L263,574L167,543Z" fill="#42abba" stroke="#42abba" fill-opacity="1" stroke-opacity="1"/><path d="M-59,547L167,543L48,524Z" fill="#42abba" stroke="#42abba" fill-opacity="1" stroke-opacity="1"/><path d="M263,574L440,571L348,540Z" fill="#3dc0d3" stroke="#3dc0d3" fill-opacity="1" stroke-opacity="1"/><path d="M539,564L766,529L676,529Z" fill="#35f5ff" stroke="#35f5ff" fill-opacity="1" stroke-opacity="1"/></g></svg>