<svg width="700" height="500" xmlns="http://www.w3.org/2000/svg"><g><path d="M-57,-45L-73,245L-29,35Z" fill="#4aaacc" stroke="#4aaacc" fill-opacity="1" stroke-opacity="1"/><path d="M-57,-45L-29,35L57,-70Z" fill="#3ea7e6" stroke="#3ea7e6" fill-opacity="1" stroke-opacity="1"/><path d="M57,-70L-29,35L26,55Z" fill="#46a9d3" stroke="#46a9d3" fill-opacity="1" stroke-opacity="1"/><path d="M57,-70L26,55L123,64Z" fill="#4eabc4" stroke="#4eabc4" fill-opacity="1" stroke-opacity="1"/><path d="M57,-70L123,64L173,-21Z" fill="#4fabc0" stroke="#4fabc0" fill-opacity="1" stroke-opacity="1"/><path d="M57,-70L173,-21L224,-55Z" fill="#4daac6" stroke="#4daac6" fill-opacity="1" stroke-opacity="1"/><path d="M57,-70L224,-55L420,-56Z" fill="#54acb3" stroke="#54acb3" fill-opacity="1" stroke-opacity="1"/><path d="M57,-70L420,-56L734,-80Z" fill="#66b088" stroke="#66b088" fill-opacity="1" stroke-opacity="1"/><path d="M173,-21L123,64L274,56Z" fill="#5eaea0" stroke="#5eaea0" fill-opacity="1" stroke-opacity="1"/><path d="M173,-21L274,56L224,-55Z" fill="#5caea5" stroke="#5caea5" fill-opacity="1" stroke-opacity="1"/><path d="M224,-55L274,56L332,-51Z" fill="#60af9b" stroke="#60af9b" fill-opacity="1" stroke-opacity="1"/><path d="M224,-55L332,-51L420,-56Z" fill="#60af9c" stroke="#60af9c" fill-opacity="1" stroke-opacity="1"/><path d="M332,-51L274,56L374,39Z" fill="#6bb184" stroke="#6bb184" fill-opacity="1" stroke-opacity="1"/><path d="M332,-51L374,39L420,-56Z" fill="#6bb185" stroke="#6bb185" fill-opacity="1" stroke-opacity="1"/><path d="M420,-56L374,39L427,75Z" fill="#75b36f" stroke="#75b36f" fill-opacity="1" stroke-opacity="1"/><path d="M420,-56L427,75L550,51Z" fill="#7cb565" stroke="#7cb565" fill-opacity="1" stroke-opacity="1"/><path d="M420,-56L550,51L568,-35Z" fill="#7cb572" stroke="#7cb572" fill-opacity="1" stroke-opacity="1"/><path d="M420,-56L568,-35L661,-67Z" fill="#7ab480" stroke="#7ab480" fill-opacity="1" stroke-opacity="1"/><path d="M420,-56L661,-67L734,-80Z" fill="#7db580" stroke="#7db580" fill-opacity="1" stroke-opacity="1"/><path d="M568,-35L550,51L666,41Z" fill="#8ab867" stroke="#8ab867" fill-opacity="1" stroke-opacity="1"/><path d="M568,-35L666,41L661,-67Z" fill="#88b874" stroke="#88b874" fill-opacity="1" stroke-opacity="1"/><path d="M661,-67L666,41L750,36Z" fill="#93ba6c" stroke="#93ba6c" fill-opacity="1" stroke-opacity="1"/><path d="M661,-67L750,36L734,-80Z" fill="#8fb97a" stroke="#8fb97a" fill-opacity="1" stroke-opacity="1"/><path d="M734,-80L750,36L774,123Z" fill="#9dbd64" stroke="#9dbd64" fill-opacity="1" stroke-opacity="1"/><path d="M-29,35L-73,245L-34,167Z" fill="#56adb2" stroke="#56adb2" fill-opacity="1" stroke-opacity="1"/><path d="M-29,35L-34,167L26,55Z" fill="#4fabbf" stroke="#4fabbf" fill-opacity="1" stroke-opacity="1"/><path d="M26,55L-34,167L54,127Z" fill="#58adae" stroke="#58adae" fill-opacity="1" stroke-opacity="1"/><path d="M26,55L54,127L123,64Z" fill="#58adad" stroke="#58adad" fill-opacity="1" stroke-opacity="1"/><path d="M123,64L54,127L121,140Z" fill="#60af9b" stroke="#60af9b" fill-opacity="1" stroke-opacity="1"/><path d="M123,64L121,140L224,154Z" fill="#68b18a" stroke="#68b18a" fill-opacity="1" stroke-opacity="1"/><path d="M123,64L224,154L274,56Z" fill="#69b187" stroke="#69b187" fill-opacity="1" stroke-opacity="1"/><path d="M274,56L224,154L337,159Z" fill="#77b46a" stroke="#77b46a" fill-opacity="1" stroke-opacity="1"/><path d="M274,56L337,159L374,39Z" fill="#76b46b" stroke="#76b46b" fill-opacity="1" stroke-opacity="1"/><path d="M374,39L337,159L427,75Z" fill="#7db65c" stroke="#7db65c" fill-opacity="1" stroke-opacity="1"/><path d="M427,75L337,159L467,166Z" fill="#88b846" stroke="#88b846" fill-opacity="1" stroke-opacity="1"/><path d="M427,75L467,166L550,51Z" fill="#8ab84b" stroke="#8ab84b" fill-opacity="1" stroke-opacity="1"/><path d="M550,51L467,166L578,170Z" fill="#95ba40" stroke="#95ba40" fill-opacity="1" stroke-opacity="1"/><path d="M550,51L578,170L659,161Z" fill="#9cbc41" stroke="#9cbc41" fill-opacity="1" stroke-opacity="1"/><path d="M550,51L659,161L666,41Z" fill="#98bb50" stroke="#98bb50" fill-opacity="1" stroke-opacity="1"/><path d="M666,41L659,161L774,123Z" fill="#a5be48" stroke="#a5be48" fill-opacity="1" stroke-opacity="1"/><path d="M666,41L774,123L750,36Z" fill="#a1be56" stroke="#a1be56" fill-opacity="1" stroke-opacity="1"/><path d="M-34,167L-73,245L79,278Z" fill="#67b18d" stroke="#67b18d" fill-opacity="1" stroke-opacity="1"/><path d="M-34,167L79,278L54,127Z" fill="#66b090" stroke="#66b090" fill-opacity="1" stroke-opacity="1"/><path d="M54,127L79,278L121,140Z" fill="#6ab186" stroke="#6ab186" fill-opacity="1" stroke-opacity="1"/><path d="M121,140L79,278L153,246Z" fill="#74b370" stroke="#74b370" fill-opacity="1" stroke-opacity="1"/><path d="M121,140L153,246L224,154Z" fill="#73b372" stroke="#73b372" fill-opacity="1" stroke-opacity="1"/><path d="M224,154L153,246L247,222Z" fill="#7cb55f" stroke="#7cb55f" fill-opacity="1" stroke-opacity="1"/><path d="M224,154L247,222L337,159Z" fill="#7fb659" stroke="#7fb659" fill-opacity="1" stroke-opacity="1"/><path d="M337,159L247,222L371,280Z" fill="#8bb83f" stroke="#8bb83f" fill-opacity="1" stroke-opacity="1"/><path d="M337,159L371,280L461,249Z" fill="#94bb29" stroke="#94bb29" fill-opacity="1" stroke-opacity="1"/><path d="M337,159L461,249L467,166Z" fill="#92ba2f" stroke="#92ba2f" fill-opacity="1" stroke-opacity="1"/><path d="M467,166L461,249L578,170Z" fill="#9cbc29" stroke="#9cbc29" fill-opacity="1" stroke-opacity="1"/><path d="M578,170L461,249L564,280Z" fill="#a6be1c" stroke="#a6be1c" fill-opacity="1" stroke-opacity="1"/><path d="M578,170L564,280L646,256Z" fill="#adc01b" stroke="#adc01b" fill-opacity="1" stroke-opacity="1"/><path d="M578,170L646,256L659,161Z" fill="#aabf29" stroke="#aabf29" fill-opacity="1" stroke-opacity="1"/><path d="M659,161L646,256L728,247Z" fill="#b4c220" stroke="#b4c220" fill-opacity="1" stroke-opacity="1"/><path d="M659,161L728,247L774,123Z" fill="#b2c130" stroke="#b2c130" fill-opacity="1" stroke-opacity="1"/><path d="M774,123L728,247L765,359Z" fill="#c1c419" stroke="#c1c419" fill-opacity="1" stroke-opacity="1"/><path d="M774,123L765,359L770,448Z" fill="#cdc701" stroke="#cdc701" fill-opacity="1" stroke-opacity="1"/><path d="M-73,245L-75,373L26,359Z" fill="#73b377" stroke="#73b377" fill-opacity="1" stroke-opacity="1"/><path d="M-73,245L26,359L79,278Z" fill="#73b371" stroke="#73b371" fill-opacity="1" stroke-opacity="1"/><path d="M79,278L26,359L161,327Z" fill="#81b657" stroke="#81b657" fill-opacity="1" stroke-opacity="1"/><path d="M79,278L161,327L153,246Z" fill="#80b657" stroke="#80b657" fill-opacity="1" stroke-opacity="1"/><path d="M153,246L161,327L247,222Z" fill="#83b750" stroke="#83b750" fill-opacity="1" stroke-opacity="1"/><path d="M247,222L161,327L221,364Z" fill="#8cb93c" stroke="#8cb93c" fill-opacity="1" stroke-opacity="1"/><path d="M247,222L221,364L338,371Z" fill="#95bb2a" stroke="#95bb2a" fill-opacity="1" stroke-opacity="1"/><path d="M247,222L338,371L371,280Z" fill="#96bb26" stroke="#96bb26" fill-opacity="1" stroke-opacity="1"/><path d="M371,280L338,371L434,343Z" fill="#a4be0f" stroke="#a4be0f" fill-opacity="1" stroke-opacity="1"/><path d="M371,280L434,343L461,249Z" fill="#a2be0c" stroke="#a2be0c" fill-opacity="1" stroke-opacity="1"/><path d="M461,249L434,343L552,353Z" fill="#adc000" stroke="#adc000" fill-opacity="1" stroke-opacity="1"/><path d="M461,249L552,353L564,280Z" fill="#aec007" stroke="#aec007" fill-opacity="1" stroke-opacity="1"/><path d="M564,280L552,353L669,322Z" fill="#bac300" stroke="#bac300" fill-opacity="1" stroke-opacity="1"/><path d="M564,280L669,322L646,256Z" fill="#b9c30a" stroke="#b9c30a" fill-opacity="1" stroke-opacity="1"/><path d="M646,256L669,322L728,247Z" fill="#bdc40e" stroke="#bdc40e" fill-opacity="1" stroke-opacity="1"/><path d="M728,247L669,322L765,359Z" fill="#c7c602" stroke="#c7c602" fill-opacity="1" stroke-opacity="1"/><path d="M-75,373L-71,454L26,359Z" fill="#7eb577" stroke="#7eb577" fill-opacity="1" stroke-opacity="1"/><path d="M26,359L-71,454L77,439Z" fill="#87b86b" stroke="#87b86b" fill-opacity="1" stroke-opacity="1"/><path d="M26,359L77,439L130,431Z" fill="#8eb95a" stroke="#8eb95a" fill-opacity="1" stroke-opacity="1"/><path d="M26,359L130,431L161,327Z" fill="#8bb853" stroke="#8bb853" fill-opacity="1" stroke-opacity="1"/><path d="M161,327L130,431L221,364Z" fill="#93ba43" stroke="#93ba43" fill-opacity="1" stroke-opacity="1"/><path d="M221,364L130,431L240,465Z" fill="#9dbc3c" stroke="#9dbc3c" fill-opacity="1" stroke-opacity="1"/><path d="M221,364L240,465L338,371Z" fill="#a2be2b" stroke="#a2be2b" fill-opacity="1" stroke-opacity="1"/><path d="M338,371L240,465L370,479Z" fill="#adc01f" stroke="#adc01f" fill-opacity="1" stroke-opacity="1"/><path d="M338,371L370,479L455,454Z" fill="#b5c20d" stroke="#b5c20d" fill-opacity="1" stroke-opacity="1"/><path d="M338,371L455,454L434,343Z" fill="#b0c108" stroke="#b0c108" fill-opacity="1" stroke-opacity="1"/><path d="M434,343L455,454L521,435Z" fill="#bac300" stroke="#bac300" fill-opacity="1" stroke-opacity="1"/><path d="M434,343L521,435L552,353Z" fill="#b9c300" stroke="#b9c300" fill-opacity="1" stroke-opacity="1"/><path d="M552,353L521,435L637,433Z" fill="#c5c500" stroke="#c5c500" fill-opacity="1" stroke-opacity="1"/><path d="M552,353L637,433L669,322Z" fill="#c5c600" stroke="#c5c600" fill-opacity="1" stroke-opacity="1"/><path d="M669,322L637,433L765,359Z" fill="#cec800" stroke="#cec800" fill-opacity="1" stroke-opacity="1"/><path d="M765,359L637,433L770,448Z" fill="#d8ca00" stroke="#d8ca00" fill-opacity="1" stroke-opacity="1"/><path d="M-71,454L-40,527L77,439Z" fill="#8db970" stroke="#8db970" fill-opacity="1" stroke-opacity="1"/><path d="M77,439L-40,527L22,560Z" fill="#97bb68" stroke="#97bb68" fill-opacity="1" stroke-opacity="1"/><path d="M77,439L22,560L173,574Z" fill="#a2be57" stroke="#a2be57" fill-opacity="1" stroke-opacity="1"/><path d="M77,439L173,574L130,431Z" fill="#9fbd4e" stroke="#9fbd4e" fill-opacity="1" stroke-opacity="1"/><path d="M130,431L173,574L227,541Z" fill="#aabf41" stroke="#aabf41" fill-opacity="1" stroke-opacity="1"/><path d="M130,431L227,541L240,465Z" fill="#a6be3c" stroke="#a6be3c" fill-opacity="1" stroke-opacity="1"/><path d="M240,465L227,541L320,553Z" fill="#b4c12c" stroke="#b4c12c" fill-opacity="1" stroke-opacity="1"/><path d="M240,465L320,553L370,479Z" fill="#b7c220" stroke="#b7c220" fill-opacity="1" stroke-opacity="1"/><path d="M370,479L320,553L455,532Z" fill="#c2c50e" stroke="#c2c50e" fill-opacity="1" stroke-opacity="1"/><path d="M370,479L455,532L455,454Z" fill="#c2c503" stroke="#c2c503" fill-opacity="1" stroke-opacity="1"/><path d="M455,454L455,532L521,435Z" fill="#c6c600" stroke="#c6c600" fill-opacity="1" stroke-opacity="1"/><path d="M521,435L455,532L533,553Z" fill="#cec700" stroke="#cec700" fill-opacity="1" stroke-opacity="1"/><path d="M521,435L533,553L636,521Z" fill="#d4c900" stroke="#d4c900" fill-opacity="1" stroke-opacity="1"/><path d="M521,435L636,521L637,433Z" fill="#d2c800" stroke="#d2c800" fill-opacity="1" stroke-opacity="1"/><path d="M637,433L636,521L770,448Z" fill="#dccb00" stroke="#dccb00" fill-opacity="1" stroke-opacity="1"/><path d="M770,448L636,521L766,529Z" fill="#e6cd00" stroke="#e6cd00" fill-opacity="1" stroke-opacity="1"/><path d="M173,574L533,553L320,553Z" fill="#c4c518" stroke="#c4c518" fill-opacity="1" stroke-opacity="1"/><path d="M173,574L320,553L227,541Z" fill="#b8c232" stroke="#b8c232" fill-opacity="1" stroke-opacity="1"/><path d="M320,553L533,553L455,532Z" fill="#cdc701" stroke="#cdc701" fill-opacity="1" stroke-opacity="1"/><path d="M533,553L766,529L636,521Z" fill="#e2cc00" stroke="#e2cc00" fill-opacity="1" stroke-opacity="1"/></g></svg>