<svg width="700" height="500" xmlns="http://www.w3.org/2000/svg"><g><path d="M-62,-47L-67,43L22,49Z" fill="#3eade4" stroke="#3eade4" fill-opacity="1" stroke-opacity="1"/><path d="M-62,-47L22,49L49,-74Z" fill="#44a8d9" stroke="#44a8d9" fill-opacity="1" stroke-opacity="1"/><path d="M49,-74L22,49L151,-47Z" fill="#4e9ec7" stroke="#4e9ec7" fill-opacity="1" stroke-opacity="1"/><path d="M49,-74L151,-47L235,-60Z" fill="#5894b4" stroke="#5894b4" fill-opacity="1" stroke-opacity="1"/><path d="M49,-74L235,-60L624,-63Z" fill="#6e7d8b" stroke="#6e7d8b" fill-opacity="1" stroke-opacity="1"/><path d="M151,-47L22,49L156,52Z" fill="#5399bd" stroke="#5399bd" fill-opacity="1" stroke-opacity="1"/><path d="M151,-47L156,52L235,-60Z" fill="#5d8fab" stroke="#5d8fab" fill-opacity="1" stroke-opacity="1"/><path d="M235,-60L156,52L267,47Z" fill="#6389a1" stroke="#6389a1" fill-opacity="1" stroke-opacity="1"/><path d="M235,-60L267,47L333,-46Z" fill="#6b8191" stroke="#6b8191" fill-opacity="1" stroke-opacity="1"/><path d="M235,-60L333,-46L452,-44Z" fill="#747881" stroke="#747881" fill-opacity="1" stroke-opacity="1"/><path d="M235,-60L452,-44L624,-63Z" fill="#826a6d" stroke="#826a6d" fill-opacity="1" stroke-opacity="1"/><path d="M333,-46L267,47L375,40Z" fill="#727a85" stroke="#727a85" fill-opacity="1" stroke-opacity="1"/><path d="M333,-46L375,40L452,-44Z" fill="#7a7275" stroke="#7a7275" fill-opacity="1" stroke-opacity="1"/><path d="M452,-44L375,40L422,75Z" fill="#7f6d6d" stroke="#7f6d6d" fill-opacity="1" stroke-opacity="1"/><path d="M452,-44L422,75L547,56Z" fill="#87656d" stroke="#87656d" fill-opacity="1" stroke-opacity="1"/><path d="M452,-44L547,56L521,-40Z" fill="#8c616d" stroke="#8c616d" fill-opacity="1" stroke-opacity="1"/><path d="M452,-44L521,-40L624,-63Z" fill="#8f5d6d" stroke="#8f5d6d" fill-opacity="1" stroke-opacity="1"/><path d="M521,-40L547,56L624,-63Z" fill="#94586d" stroke="#94586d" fill-opacity="1" stroke-opacity="1"/><path d="M624,-63L547,56L677,62Z" fill="#9b546d" stroke="#9b546d" fill-opacity="1" stroke-opacity="1"/><path d="M624,-63L677,62L751,-33Z" fill="#a1546d" stroke="#a1546d" fill-opacity="1" stroke-opacity="1"/><path d="M751,-33L677,62L721,70Z" fill="#a1546d" stroke="#a1546d" fill-opacity="1" stroke-opacity="1"/><path d="M751,-33L721,70L741,175Z" fill="#a1546d" stroke="#a1546d" fill-opacity="1" stroke-opacity="1"/><path d="M751,-33L741,175L751,258Z" fill="#a1546d" stroke="#a1546d" fill-opacity="1" stroke-opacity="1"/><path d="M-67,43L-74,540L-48,175Z" fill="#5498bb" stroke="#5498bb" fill-opacity="1" stroke-opacity="1"/><path d="M-67,43L-48,175L28,123Z" fill="#3face2" stroke="#3face2" fill-opacity="1" stroke-opacity="1"/><path d="M-67,43L28,123L22,49Z" fill="#42a9dc" stroke="#42a9dc" fill-opacity="1" stroke-opacity="1"/><path d="M22,49L28,123L156,52Z" fill="#4d9fc8" stroke="#4d9fc8" fill-opacity="1" stroke-opacity="1"/><path d="M156,52L28,123L167,158Z" fill="#5498bb" stroke="#5498bb" fill-opacity="1" stroke-opacity="1"/><path d="M156,52L167,158L267,47Z" fill="#5f8ca7" stroke="#5f8ca7" fill-opacity="1" stroke-opacity="1"/><path d="M267,47L167,158L227,177Z" fill="#6389a0" stroke="#6389a0" fill-opacity="1" stroke-opacity="1"/><path d="M267,47L227,177L366,132Z" fill="#6c808f" stroke="#6c808f" fill-opacity="1" stroke-opacity="1"/><path d="M267,47L366,132L375,40Z" fill="#737982" stroke="#737982" fill-opacity="1" stroke-opacity="1"/><path d="M375,40L366,132L422,75Z" fill="#7b7174" stroke="#7b7174" fill-opacity="1" stroke-opacity="1"/><path d="M422,75L366,132L478,157Z" fill="#806d6d" stroke="#806d6d" fill-opacity="1" stroke-opacity="1"/><path d="M422,75L478,157L547,56Z" fill="#88646d" stroke="#88646d" fill-opacity="1" stroke-opacity="1"/><path d="M547,56L478,157L524,154Z" fill="#8d5f6d" stroke="#8d5f6d" fill-opacity="1" stroke-opacity="1"/><path d="M547,56L524,154L675,134Z" fill="#96566d" stroke="#96566d" fill-opacity="1" stroke-opacity="1"/><path d="M547,56L675,134L677,62Z" fill="#9e546d" stroke="#9e546d" fill-opacity="1" stroke-opacity="1"/><path d="M677,62L675,134L721,70Z" fill="#a1546d" stroke="#a1546d" fill-opacity="1" stroke-opacity="1"/><path d="M721,70L675,134L741,175Z" fill="#a1546d" stroke="#a1546d" fill-opacity="1" stroke-opacity="1"/><path d="M-48,175L-74,540L-36,347Z" fill="#747881" stroke="#747881" fill-opacity="1" stroke-opacity="1"/><path d="M-48,175L-36,347L-35,280Z" fill="#5c90ad" stroke="#5c90ad" fill-opacity="1" stroke-opacity="1"/><path d="M-48,175L-35,280L80,222Z" fill="#5597ba" stroke="#5597ba" fill-opacity="1" stroke-opacity="1"/><path d="M-48,175L80,222L28,123Z" fill="#48a3d1" stroke="#48a3d1" fill-opacity="1" stroke-opacity="1"/><path d="M28,123L80,222L167,158Z" fill="#519bc2" stroke="#519bc2" fill-opacity="1" stroke-opacity="1"/><path d="M167,158L80,222L151,248Z" fill="#6389a0" stroke="#6389a0" fill-opacity="1" stroke-opacity="1"/><path d="M167,158L151,248L224,230Z" fill="#6b8192" stroke="#6b8192" fill-opacity="1" stroke-opacity="1"/><path d="M167,158L224,230L227,177Z" fill="#678598" stroke="#678598" fill-opacity="1" stroke-opacity="1"/><path d="M227,177L224,230L359,274Z" fill="#7c7072" stroke="#7c7072" fill-opacity="1" stroke-opacity="1"/><path d="M227,177L359,274L366,132Z" fill="#797377" stroke="#797377" fill-opacity="1" stroke-opacity="1"/><path d="M366,132L359,274L434,265Z" fill="#8b6155" stroke="#8b6155" fill-opacity="1" stroke-opacity="1"/><path d="M366,132L434,265L478,157Z" fill="#866763" stroke="#866763" fill-opacity="1" stroke-opacity="1"/><path d="M478,157L434,265L550,250Z" fill="#9a524e" stroke="#9a524e" fill-opacity="1" stroke-opacity="1"/><path d="M478,157L550,250L524,154Z" fill="#935962" stroke="#935962" fill-opacity="1" stroke-opacity="1"/><path d="M524,154L550,250L631,239Z" fill="#a34a53" stroke="#a34a53" fill-opacity="1" stroke-opacity="1"/><path d="M524,154L631,239L675,134Z" fill="#9d5268" stroke="#9d5268" fill-opacity="1" stroke-opacity="1"/><path d="M675,134L631,239L741,175Z" fill="#a64f64" stroke="#a64f64" fill-opacity="1" stroke-opacity="1"/><path d="M741,175L631,239L751,258Z" fill="#b2434e" stroke="#b2434e" fill-opacity="1" stroke-opacity="1"/><path d="M-35,280L-36,347L61,349Z" fill="#727a84" stroke="#727a84" fill-opacity="1" stroke-opacity="1"/><path d="M-35,280L61,349L80,222Z" fill="#6b8190" stroke="#6b8190" fill-opacity="1" stroke-opacity="1"/><path d="M80,222L61,349L151,248Z" fill="#717b86" stroke="#717b86" fill-opacity="1" stroke-opacity="1"/><path d="M151,248L61,349L122,360Z" fill="#816c69" stroke="#816c69" fill-opacity="1" stroke-opacity="1"/><path d="M151,248L122,360L259,341Z" fill="#8a6359" stroke="#8a6359" fill-opacity="1" stroke-opacity="1"/><path d="M151,248L259,341L224,230Z" fill="#816b68" stroke="#816b68" fill-opacity="1" stroke-opacity="1"/><path d="M224,230L259,341L359,274Z" fill="#8e5f51" stroke="#8e5f51" fill-opacity="1" stroke-opacity="1"/><path d="M359,274L259,341L336,345Z" fill="#9f4e32" stroke="#9f4e32" fill-opacity="1" stroke-opacity="1"/><path d="M359,274L336,345L456,352Z" fill="#a9431f" stroke="#a9431f" fill-opacity="1" stroke-opacity="1"/><path d="M359,274L456,352L434,265Z" fill="#a64725" stroke="#a64725" fill-opacity="1" stroke-opacity="1"/><path d="M434,265L456,352L550,250Z" fill="#ac402a" stroke="#ac402a" fill-opacity="1" stroke-opacity="1"/><path d="M550,250L456,352L537,363Z" fill="#bb3218" stroke="#bb3218" fill-opacity="1" stroke-opacity="1"/><path d="M550,250L537,363L664,349Z" fill="#c52818" stroke="#c52818" fill-opacity="1" stroke-opacity="1"/><path d="M550,250L664,349L631,239Z" fill="#bd332f" stroke="#bd332f" fill-opacity="1" stroke-opacity="1"/><path d="M631,239L664,349L751,258Z" fill="#c4322e" stroke="#c4322e" fill-opacity="1" stroke-opacity="1"/><path d="M751,258L664,349L744,376Z" fill="#d22414" stroke="#d22414" fill-opacity="1" stroke-opacity="1"/><path d="M751,258L744,376L746,433Z" fill="#da1c05" stroke="#da1c05" fill-opacity="1" stroke-opacity="1"/><path d="M-36,347L-74,540L-22,456Z" fill="#915b79" stroke="#915b79" fill-opacity="1" stroke-opacity="1"/><path d="M-36,347L-22,456L20,455Z" fill="#8d5f71" stroke="#8d5f71" fill-opacity="1" stroke-opacity="1"/><path d="M-36,347L20,455L61,349Z" fill="#866669" stroke="#866669" fill-opacity="1" stroke-opacity="1"/><path d="M61,349L20,455L122,360Z" fill="#8f5d5b" stroke="#8f5d5b" fill-opacity="1" stroke-opacity="1"/><path d="M122,360L20,455L149,461Z" fill="#9f4e54" stroke="#9f4e54" fill-opacity="1" stroke-opacity="1"/><path d="M122,360L149,461L255,435Z" fill="#a8443f" stroke="#a8443f" fill-opacity="1" stroke-opacity="1"/><path d="M122,360L255,435L259,341Z" fill="#a14b36" stroke="#a14b36" fill-opacity="1" stroke-opacity="1"/><path d="M259,341L255,435L327,421Z" fill="#b13c24" stroke="#b13c24" fill-opacity="1" stroke-opacity="1"/><path d="M259,341L327,421L336,345Z" fill="#ac411c" stroke="#ac411c" fill-opacity="1" stroke-opacity="1"/><path d="M336,345L327,421L456,352Z" fill="#b7360b" stroke="#b7360b" fill-opacity="1" stroke-opacity="1"/><path d="M456,352L327,421L478,432Z" fill="#c62700" stroke="#c62700" fill-opacity="1" stroke-opacity="1"/><path d="M456,352L478,432L537,363Z" fill="#ca2300" stroke="#ca2300" fill-opacity="1" stroke-opacity="1"/><path d="M537,363L478,432L539,472Z" fill="#da1300" stroke="#da1300" fill-opacity="1" stroke-opacity="1"/><path d="M537,363L539,472L629,420Z" fill="#e00d00" stroke="#e00d00" fill-opacity="1" stroke-opacity="1"/><path d="M537,363L629,420L664,349Z" fill="#d91600" stroke="#d91600" fill-opacity="1" stroke-opacity="1"/><path d="M664,349L629,420L744,376Z" fill="#e21400" stroke="#e21400" fill-opacity="1" stroke-opacity="1"/><path d="M744,376L629,420L746,433Z" fill="#ea0c00" stroke="#ea0c00" fill-opacity="1" stroke-opacity="1"/><path d="M-22,456L-74,540L33,562Z" fill="#9e5773" stroke="#9e5773" fill-opacity="1" stroke-opacity="1"/><path d="M-22,456L33,562L20,455Z" fill="#a3536b" stroke="#a3536b" fill-opacity="1" stroke-opacity="1"/><path d="M20,455L33,562L149,461Z" fill="#ab4b5c" stroke="#ab4b5c" fill-opacity="1" stroke-opacity="1"/><path d="M149,461L33,562L163,537Z" fill="#b2444f" stroke="#b2444f" fill-opacity="1" stroke-opacity="1"/><path d="M149,461L163,537L246,547Z" fill="#bc3a3c" stroke="#bc3a3c" fill-opacity="1" stroke-opacity="1"/><path d="M149,461L246,547L255,435Z" fill="#c03634" stroke="#c03634" fill-opacity="1" stroke-opacity="1"/><path d="M255,435L246,547L336,548Z" fill="#c92d24" stroke="#c92d24" fill-opacity="1" stroke-opacity="1"/><path d="M255,435L336,548L327,421Z" fill="#c9291d" stroke="#c9291d" fill-opacity="1" stroke-opacity="1"/><path d="M327,421L336,548L455,547Z" fill="#d6200b" stroke="#d6200b" fill-opacity="1" stroke-opacity="1"/><path d="M327,421L455,547L478,432Z" fill="#d91900" stroke="#d91900" fill-opacity="1" stroke-opacity="1"/><path d="M478,432L455,547L525,529Z" fill="#e71000" stroke="#e71000" fill-opacity="1" stroke-opacity="1"/><path d="M478,432L525,529L539,472Z" fill="#ea0c00" stroke="#ea0c00" fill-opacity="1" stroke-opacity="1"/><path d="M539,472L525,529L625,554Z" fill="#f20500" stroke="#f20500" fill-opacity="1" stroke-opacity="1"/><path d="M539,472L625,554L629,420Z" fill="#f70000" stroke="#f70000" fill-opacity="1" stroke-opacity="1"/><path d="M629,420L625,554L742,527Z" fill="#ff0000" stroke="#ff0000" fill-opacity="1" stroke-opacity="1"/><path d="M629,420L742,527L746,433Z" fill="#f90000" stroke="#f90000" fill-opacity="1" stroke-opacity="1"/><path d="M33,562L625,554L336,548Z" fill="#d12516" stroke="#d12516" fill-opacity="1" stroke-opacity="1"/><path d="M33,562L336,548L246,547Z" fill="#bf3737" stroke="#bf3737" fill-opacity="1" stroke-opacity="1"/><path d="M33,562L246,547L163,537Z" fill="#b63f47" stroke="#b63f47" fill-opacity="1" stroke-opacity="1"/><path d="M336,548L625,554L455,547Z" fill="#e51100" stroke="#e51100" fill-opacity="1" stroke-opacity="1"/><path d="M455,547L625,554L525,529Z" fill="#ee0900" stroke="#ee0900" fill-opacity="1" stroke-opacity="1"/></g></svg>